<svg width="24" height="24" viewBox="0 0 24 24" fill="none" xmlns="http://www.w3.org/2000/svg">
<path d="M12.88 7.01723L17.654 8.28823M11.858 10.8132L14.244 11.4492M11.977 17.9662L12.931 18.2212C15.631 18.9412 16.981 19.3002 18.045 18.6892C19.108 18.0792 19.47 16.7362 20.193 14.0522L21.216 10.2552C21.94 7.57023 22.301 6.22823 21.687 5.17023C21.073 4.11223 19.724 3.75323 17.023 3.03423L16.069 2.77923C13.369 2.05923 12.019 1.70023 10.956 2.31123C9.892 2.92123 9.53 4.26423 8.806 6.94823L7.784 10.7452C7.06 13.4302 6.698 14.7722 7.313 15.8302C7.927 16.8872 9.277 17.2472 11.977 17.9662Z" stroke="#EB7712" stroke-width="1.5" stroke-linecap="round" stroke-linejoin="round"/>
<path d="M12 20.9462L11.048 21.2062C8.354 21.9392 7.008 22.3062 5.946 21.6832C4.886 21.0612 4.524 19.6932 3.803 16.9552L2.782 13.0832C2.06 10.3462 1.699 8.97716 2.312 7.89916C2.842 6.96616 4 7.00016 5.5 7.00016" stroke="#EB7712" stroke-width="1.5" stroke-linecap="round" stroke-linejoin="round"/>
</svg>
